<svg width="107" height="123" viewBox="0 0 107 123" fill="none" xmlns="http://www.w3.org/2000/svg">
<path d="M95.0484 2V8" stroke="#75A4FE" stroke-width="2.5" stroke-linecap="round" stroke-linejoin="round"/>
<path d="M95.0484 16V22" stroke="#75A4FE" stroke-width="2.5" stroke-linecap="round" stroke-linejoin="round"/>
<path d="M85.0967 12H91.0677" stroke="#75A4FE" stroke-width="2.5" stroke-linecap="round" stroke-linejoin="round"/>
<path d="M99.0293 12H105" stroke="#75A4FE" stroke-width="2.5" stroke-linecap="round" stroke-linejoin="round"/>
<path d="M12.4497 105V109" stroke="#75A4FE" stroke-width="2.5" stroke-linecap="round" stroke-linejoin="round"/>
<path d="M12.4497 117V121" stroke="#75A4FE" stroke-width="2.5" stroke-linecap="round" stroke-linejoin="round"/>
<path d="M4.48828 113H8.46896" stroke="#75A4FE" stroke-width="2.5" stroke-linecap="round" stroke-linejoin="round"/>
<path d="M16.4307 113H20.4113" stroke="#75A4FE" stroke-width="2.5" stroke-linecap="round" stroke-linejoin="round"/>
<path fill-rule="evenodd" clip-rule="evenodd" d="M83.7114 88.1263C85.1021 86.4232 86.3521 84.6421 87.4614 82.7987C89.9011 78.7443 91.6596 74.3884 92.7343 69.8975C93.8213 65.3555 94.2088 60.6755 93.8943 56.0296C93.6198 51.9756 92.8108 47.9475 91.4653 44.0598C90.1305 40.2028 88.2678 36.484 85.8753 33.015C84.4497 30.9479 82.8359 28.9696 81.0338 27.1036C78.3878 24.364 75.4856 22.0219 72.402 20.0787C69.0887 17.9908 65.5659 16.3634 61.9264 15.1984C57.3685 13.7393 52.6275 13.0054 47.8859 13C44.1965 12.9959 40.5068 13.4328 36.9025 14.3125C32.8447 15.3028 28.8953 16.8543 25.1766 18.9692C21.9076 20.8284 18.817 23.123 15.988 25.8547C12.4328 29.2875 9.55299 33.1572 7.35124 37.2985C5.19563 41.3531 3.68992 45.6682 2.83656 50.0887C1.95737 54.6429 1.77061 59.3091 2.27894 63.9178C2.9378 69.8911 4.76435 75.7677 7.7644 81.1785C9.68404 84.6407 12.0842 87.9123 14.9663 90.8964C19.5416 95.6338 24.8833 99.1826 30.6045 101.535C37.5619 104.397 45.0806 105.489 52.4647 104.8C58.662 104.221 64.7645 102.387 70.361 99.2902" fill="#082E8F"/>
<path d="M83.7114 88.1263C85.1021 86.4232 86.3521 84.6421 87.4614 82.7987C89.9011 78.7443 91.6596 74.3884 92.7343 69.8975C93.8213 65.3555 94.2088 60.6755 93.8943 56.0296C93.6198 51.9756 92.8108 47.9475 91.4653 44.0598C90.1305 40.2028 88.2678 36.484 85.8753 33.015C84.4497 30.9479 82.8359 28.9696 81.0338 27.1036C78.3878 24.364 75.4856 22.0219 72.402 20.0787C69.0887 17.9908 65.5659 16.3634 61.9264 15.1984C57.3685 13.7393 52.6275 13.0054 47.8859 13C44.1965 12.9959 40.5068 13.4328 36.9025 14.3125C32.8447 15.3028 28.8953 16.8543 25.1766 18.9692C21.9076 20.8284 18.817 23.123 15.988 25.8547C12.4328 29.2875 9.55299 33.1572 7.35124 37.2985C5.19563 41.3531 3.68992 45.6682 2.83656 50.0887C1.95737 54.6429 1.77061 59.3091 2.27894 63.9178C2.9378 69.8911 4.76435 75.7677 7.7644 81.1785C9.68404 84.6407 12.0842 87.9123 14.9663 90.8964C19.5416 95.6338 24.8833 99.1826 30.6045 101.535C37.5619 104.397 45.0806 105.489 52.4647 104.8C58.662 104.221 64.7645 102.387 70.361 99.2902" stroke="#1F64E7" stroke-width="2.5" stroke-linecap="round" stroke-linejoin="round"/>
<path fill-rule="evenodd" clip-rule="evenodd" d="M73.3553 97.3782C76.2473 95.5081 78.8186 93.1749 80.4914 91.2913L73.3553 97.3782Z" fill="white"/>
<path d="M73.3553 97.3782C76.2473 95.5081 78.8186 93.1749 80.4914 91.2913" stroke="#1F64E7" stroke-width="2.5" stroke-linecap="round"/>
<path d="M90 61.617C89.714 61.6221 89.4273 61.6246 89.14 61.6246C63.8865 61.6246 43.2087 41.9362 41.4759 17C21.3752 20.1706 6 37.6526 6 58.7434C6 82.0811 24.8255 101 48.0478 101C70.3092 101 88.5301 83.6145 90 61.617Z" fill="#1E52D4"/>
<path fill-rule="evenodd" clip-rule="evenodd" d="M32.0233 57.3729C30.8001 56.2433 28.9025 56.33 27.785 57.5666C26.6676 58.8032 26.7534 60.7214 27.9767 61.8511L42.0957 74.889C43.8083 76.4704 46.4649 76.349 48.0293 74.6178C48.0947 74.5442 48.0947 74.5442 48.1578 74.4687L68.3067 49.9716C69.366 48.6837 69.1919 46.7716 67.9179 45.7008C66.6439 44.63 64.7524 44.806 63.6931 46.0939L44.75 69.125L32.0233 57.3729Z" fill="white" stroke="#0344E9" stroke-width="2.5" stroke-linecap="round"/>
<path fill-rule="evenodd" clip-rule="evenodd" d="M33.6704 21.4129C31.7296 22.1446 29.8339 23.0336 28.0024 24.0804C25.1565 25.7071 22.4658 27.7147 20.0028 30.1047C18.9931 31.0845 18.0461 32.1048 17.1617 33.1609M14.4247 36.8377C13.7214 37.9055 13.0743 39.0002 12.4832 40.1175C12.0467 40.9427 11.6407 41.7802 11.2655 42.6283" fill="white"/>
<path d="M34.1082 22.5861C34.7531 22.343 35.0798 21.6207 34.838 20.9728C34.5962 20.3249 33.8774 19.9967 33.2326 20.2398L34.1082 22.5861ZM28.0024 24.0804L28.6188 25.1695L28.0024 24.0804ZM20.0028 30.1047L19.1366 29.2035L20.0028 30.1047ZM16.2077 32.3542C15.7642 32.8837 15.8318 33.6741 16.3587 34.1197C16.8856 34.5652 17.6723 34.4971 18.1157 33.9676L16.2077 32.3542ZM15.4645 37.529C15.8446 36.9519 15.6872 36.1745 15.1129 35.7927C14.5386 35.4108 13.7649 35.5692 13.3848 36.1463L15.4645 37.529ZM12.4832 40.1175L13.5842 40.7055L12.4832 40.1175ZM10.126 42.1194C9.84624 42.7518 10.1295 43.4923 10.7588 43.7734C11.3881 44.0544 12.1251 43.7696 12.4049 43.1372L10.126 42.1194ZM33.2326 20.2398C31.2308 20.9944 29.2753 21.9115 27.386 22.9913L28.6188 25.1695C30.3925 24.1558 32.2285 23.2947 34.1082 22.5861L33.2326 20.2398ZM27.386 22.9913C24.4501 24.6694 21.6753 26.74 19.1366 29.2035L20.8689 31.006C23.2562 28.6895 25.8628 26.7448 28.6188 25.1695L27.386 22.9913ZM19.1366 29.2035C18.0961 30.2132 17.1197 31.2652 16.2077 32.3542L18.1157 33.9676C18.9725 32.9445 19.8902 31.9557 20.8689 31.006L19.1366 29.2035ZM13.3848 36.1463C12.6594 37.2478 11.9918 38.377 11.3821 39.5295L13.5842 40.7055C14.1567 39.6234 14.7834 38.5633 15.4645 37.529L13.3848 36.1463ZM11.3821 39.5295C10.9318 40.3807 10.5131 41.2446 10.126 42.1194L12.4049 43.1372C12.7683 42.3158 13.1615 41.5047 13.5842 40.7055L11.3821 39.5295Z" fill="#75A4FE"/>
</svg>
