<svg width="20" height="20" viewBox="0 0 20 20" fill="none" xmlns="http://www.w3.org/2000/svg">
<path d="M10.0005 20C15.5233 20 20.0005 15.5228 20.0005 10C20.0005 4.47715 15.5233 0 10.0005 0C4.47764 0 0.000488281 4.47715 0.000488281 10C0.000488281 15.5228 4.47764 20 10.0005 20Z" fill="#2775CA"/>
<path d="M12.7435 11.143C12.7435 9.68869 11.8709 9.19005 10.1256 8.98231C8.87897 8.81606 8.62965 8.48366 8.62965 7.90184C8.62965 7.32002 9.04522 6.94614 9.87626 6.94614C10.6242 6.94614 11.0398 7.19546 11.2475 7.81877C11.2891 7.94343 11.4138 8.02651 11.5385 8.02651H12.2032C12.3695 8.02651 12.4942 7.90184 12.4942 7.7357V7.69411C12.3279 6.77989 11.5799 6.07351 10.6242 5.99043V4.99314C10.6242 4.82689 10.4996 4.70223 10.2918 4.66064H9.66853C9.50228 4.66064 9.37762 4.78531 9.33603 4.99314V5.94885C8.08941 6.1151 7.29995 6.94614 7.29995 7.98502C7.29995 9.3563 8.131 9.89643 9.87626 10.1043C11.0398 10.312 11.4138 10.5613 11.4138 11.2262C11.4138 11.8911 10.832 12.3482 10.0425 12.3482C8.96204 12.3482 8.58806 11.891 8.4634 11.2677C8.42191 11.1016 8.29725 11.0184 8.17259 11.0184H7.4661C7.29996 11.0184 7.17529 11.143 7.17529 11.3093V11.3509C7.34144 12.3897 8.00634 13.1376 9.37762 13.3455V14.3428C9.37762 14.5089 9.50228 14.6336 9.71002 14.6752H10.3333C10.4996 14.6752 10.6242 14.5505 10.6658 14.3428V13.3455C11.9124 13.1376 12.7435 12.265 12.7435 11.143Z" fill="white"/>
<path d="M7.88246 15.5061C4.64125 14.3427 2.97906 10.7275 4.18419 7.52777C4.8075 5.78251 6.17878 4.45282 7.88246 3.82951C8.04871 3.74643 8.13178 3.62177 8.13178 3.41394V2.83221C8.13178 2.66597 8.04871 2.5413 7.88246 2.49982C7.84087 2.49982 7.7578 2.49982 7.71621 2.5413C3.76862 3.78792 1.60778 7.98493 2.8544 11.9325C3.60237 14.2595 5.38922 16.0464 7.71621 16.7943C7.88246 16.8774 8.04871 16.7943 8.09019 16.6281C8.13178 16.5866 8.13178 16.545 8.13178 16.4619V15.8801C8.13178 15.7555 8.00712 15.5893 7.88246 15.5061ZM12.2872 2.5413C12.121 2.45823 11.9547 2.5413 11.9132 2.70755C11.8716 2.74914 11.8716 2.79063 11.8716 2.8738V3.45552C11.8716 3.62177 11.9963 3.78792 12.121 3.8711C15.3622 5.03454 17.0244 8.64973 15.8192 11.8494C15.1959 13.5947 13.8246 14.9244 12.121 15.5477C11.9547 15.6308 11.8716 15.7555 11.8716 15.9633V16.545C11.8716 16.7113 11.9547 16.8359 12.121 16.8774C12.1625 16.8774 12.2456 16.8774 12.2872 16.8359C16.2348 15.5893 18.3956 11.3923 17.149 7.4447C16.4011 5.07613 14.5726 3.28927 12.2872 2.5413Z" fill="white"/>
</svg>
