<svg xmlns="http://www.w3.org/2000/svg" width="167" height="167" viewBox="0 0 167 167" fill="none">
  <path d="M50.4321 44.0677C50.4321 44.0677 68.3391 57.6567 95.5625 32.2477C119.739 9.68259 139.48 45.2853 139.618 62.3348C139.797 84.4206 115.441 102.093 127.261 116.599C139.081 131.105 103.821 155.06 84.8172 134.329C61.1773 108.54 54.7731 129.493 41.2985 129.493C31.6276 129.493 11.7724 105.464 25.1804 87.5864C36.4631 72.5429 30.3097 67.5502 27.3299 62.3348C23.0314 54.8131 33.2395 34.3969 50.4321 44.0677Z" fill="#082E8F"/>
  <path d="M122.323 74.0973C123.285 74.455 124.337 74.4788 125.338 74.249C129.531 73.2866 143.948 70.7384 141.443 81.9105C140.897 84.1271 132.454 96.5406 144.479 101.072C145.36 101.408 146.292 101.592 147.235 101.615C150.937 101.691 158.274 100.817 161.344 97.6912C165.054 93.9152 161.001 95.7059 161.001 95.7059C161.001 95.7059 146.899 101.86 141.918 95.3309C141.364 94.6044 141.011 93.5493 140.91 92.641C140.734 91.0662 141.434 88.9851 142.352 87.1735C143.596 84.7216 149.564 73.692 136.605 70.4789C133.62 69.768 129.284 69.1294 123.693 71.4833C120.432 72.8562 121.154 73.6632 122.323 74.0973Z" fill="#BDD6F9"/>
  <path d="M125.209 69.9798L121.455 71.3846C120.16 71.8695 119.502 73.313 119.987 74.6087L120.173 75.1058C120.658 76.4015 122.102 77.0588 123.398 76.5738L127.151 75.1691C128.447 74.6841 129.104 73.2407 128.619 71.945L128.433 71.4478C127.948 70.1521 126.505 69.4949 125.209 69.9798Z" fill="#0E84E5"/>
  <path d="M102.169 74.0446L89.7902 78.6776C89.1424 78.92 88.8137 79.6418 89.0562 80.2896L89.105 80.4199C89.3474 81.0677 90.0692 81.3964 90.717 81.1539L103.096 76.521C103.744 76.2785 104.072 75.5568 103.83 74.9089L103.781 74.7787C103.539 74.1308 102.817 73.8022 102.169 74.0446Z" fill="white"/>
  <path d="M105.624 83.2755L93.2453 87.9084C92.5975 88.1509 92.2688 88.8727 92.5113 89.5205L92.5601 89.6508C92.8025 90.2987 93.5243 90.6273 94.1721 90.3848L106.551 85.7519C107.199 85.5094 107.527 84.7877 107.285 84.1398L107.236 84.0095C106.994 83.3617 106.272 83.033 105.624 83.2755Z" fill="white"/>
  <path d="M117.053 67.7451L107.02 71.5C105.724 71.9849 105.067 73.4284 105.552 74.7241L108.977 83.8764C109.462 85.1721 110.906 85.8293 112.201 85.3444L122.234 81.5895C123.53 81.1046 124.187 79.6611 123.702 78.3654L120.277 69.2131C119.792 67.9174 118.348 67.2602 117.053 67.7451Z" fill="#5895F9"/>
  <path d="M108.057 70.1462L98.0238 73.9011C96.7281 74.386 96.0708 75.8295 96.5558 77.1252L100.642 88.0442C101.127 89.3399 102.571 89.9972 103.866 89.5122L113.899 85.7573C115.195 85.2724 115.852 83.8289 115.367 82.5332L111.281 71.6142C110.796 70.3185 109.352 69.6612 108.057 70.1462Z" fill="#699CFF"/>
  <path d="M109.627 67.9302L109.548 67.9597C108.685 68.283 108.246 69.2453 108.57 70.1091L114.295 85.4055C114.618 86.2693 115.58 86.7074 116.444 86.3841L116.523 86.3547C117.386 86.0314 117.825 85.0691 117.501 84.2053L111.777 68.9089C111.453 68.0451 110.491 67.6069 109.627 67.9302Z" fill="#208AF2"/>
  <path d="M7.32555 77.7101C7.32555 77.7101 27.4748 72.0476 24.5494 85.0934C24.0414 87.1576 16.7286 97.7863 25.4393 102.889C27.3097 103.985 29.4682 104.471 31.6357 104.459C35.5221 104.439 41.6831 103.691 44.4509 100.874C48.1603 97.0977 44.1079 98.8884 44.1079 98.8884C44.1079 98.8884 32.5359 103.648 26.5825 99.8541C24.5497 98.5585 23.6283 96.05 24.1803 93.7034C24.4624 92.5378 24.8921 91.4129 25.4588 90.356C26.7536 87.931 32.6709 76.8745 19.7117 73.6614C16.7264 72.9505 12.3905 72.3119 6.79975 74.6658C1.20901 77.0196 7.32555 77.7101 7.32555 77.7101Z" fill="#BDD6F9"/>
  <path d="M47.1601 95.9692L43.4066 97.374C42.1109 97.8589 41.4537 99.3024 41.9386 100.598L42.1247 101.095C42.6096 102.391 44.0531 103.048 45.3488 102.563L49.1022 101.158C50.3979 100.674 51.0552 99.23 50.5703 97.9343L50.3842 97.4372C49.8993 96.1415 48.4558 95.4842 47.1601 95.9692Z" fill="#0E84E5"/>
  <path d="M53.5017 89.7936L47.9388 91.8756C46.6431 92.3605 45.9859 93.804 46.4708 95.0997L49.1532 102.267C49.6381 103.562 51.0816 104.22 52.3773 103.735L57.9402 101.653C59.2359 101.168 59.8931 99.7244 59.4082 98.4287L56.7258 91.2616C56.2409 89.9659 54.7974 89.3086 53.5017 89.7936Z" fill="#5895F9"/>
  <path d="M62.7629 84.2756L54.4672 87.3804C53.1715 87.8653 52.5142 89.3088 52.9991 90.6045L57.0857 101.524C57.5706 102.819 59.0141 103.476 60.3098 102.992L68.6056 99.8867C69.9013 99.4018 70.5586 97.9583 70.0736 96.6626L65.9871 85.7436C65.5021 84.4479 64.0586 83.7906 62.7629 84.2756Z" fill="#699CFF"/>
  <path d="M64.5197 82.0143L64.441 82.0437C63.5772 82.367 63.139 83.3293 63.4623 84.1931L69.1872 99.4895C69.5105 100.353 70.4728 100.791 71.3366 100.468L71.4153 100.439C72.2791 100.115 72.7172 99.1531 72.394 98.2893L66.6691 82.993C66.3458 82.1292 65.3835 81.691 64.5197 82.0143Z" fill="#208AF2"/>
  <path d="M85.7035 72.2693C85.4048 72.2361 85.1305 72.0883 84.9385 71.8571C84.7465 71.6258 84.6517 71.329 84.6741 71.0293L85.2931 59.7234C85.33 59.048 85.9003 58.5349 86.5475 58.5946L87.4493 58.6781C88.0965 58.7378 88.5599 59.3461 88.4694 60.0167L86.9483 71.2391C86.9133 71.5381 86.7644 71.812 86.5325 72.0039C86.3007 72.1958 86.0037 72.2908 85.7035 72.2693Z" fill="#418DF9"/>
  <path d="M80.3592 73.2441C80.2663 73.2714 80.1689 73.2801 80.0726 73.2698C79.9763 73.2595 79.883 73.2303 79.798 73.1839C79.713 73.1375 79.6379 73.0748 79.5772 72.9993C79.5164 72.9239 79.4711 72.8373 79.4438 72.7444L77.2334 65.7115C77.1691 65.5115 77.1868 65.2941 77.2825 65.1072C77.3783 64.9202 77.5443 64.7788 77.7442 64.7141L78.3165 64.5414C78.4147 64.5128 78.5178 64.5048 78.6192 64.518C78.7207 64.5311 78.8183 64.5652 78.9059 64.618C78.9935 64.6708 79.0692 64.7412 79.1282 64.8248C79.1872 64.9083 79.2283 65.0032 79.2488 65.1034L80.8871 72.309C80.9327 72.5027 80.9038 72.7065 80.8059 72.8798C80.7081 73.053 80.5486 73.1831 80.3592 73.2441Z" fill="#418DF9"/>
  <path d="M77.3765 77.2998C76.9805 77.7905 76.184 77.7847 75.5708 77.2865L64.685 68.442C64.0347 67.9137 63.8429 67.0392 64.263 66.519L64.8486 65.7936C65.2688 65.2731 66.1318 65.3158 66.7471 65.8874L77.0474 75.4574C77.6275 75.9963 77.7726 76.809 77.3765 77.2998Z" fill="#418DF9"/>
  <path d="M82.408 100.144C82.6884 100.252 82.9158 100.465 83.0423 100.738C83.1689 101.011 83.1848 101.322 83.0866 101.606L79.6007 112.378C79.3925 113.022 78.7101 113.372 78.0996 113.149L77.2486 112.838C76.6381 112.615 76.3451 111.909 76.6042 111.284L80.941 100.822C81.0511 100.542 81.2651 100.315 81.5384 100.189C81.8117 100.062 82.1232 100.046 82.408 100.144Z" fill="#418DF9"/>
  <path d="M87.8241 100.567C87.9209 100.564 88.0173 100.58 88.1078 100.615C88.1982 100.649 88.281 100.702 88.3513 100.768C88.4217 100.835 88.4782 100.914 88.5177 101.003C88.5573 101.091 88.579 101.187 88.5816 101.283L88.9226 108.648C88.9336 108.858 88.861 109.063 88.7207 109.219C88.5804 109.376 88.3837 109.47 88.174 109.482L87.5764 109.502C87.4742 109.505 87.3725 109.486 87.2778 109.448C87.1831 109.409 87.0974 109.351 87.0262 109.278C86.955 109.204 86.8997 109.117 86.864 109.021C86.8283 108.925 86.8128 108.823 86.8186 108.721L87.0752 101.336C87.0805 101.137 87.1605 100.947 87.2993 100.805C87.438 100.662 87.6254 100.577 87.8241 100.567Z" fill="#418DF9"/>
  <path d="M91.7438 97.4072C92.2522 97.0338 93.0207 97.2429 93.4863 97.8811L101.752 109.212C102.246 109.889 102.208 110.783 101.669 111.179L100.917 111.731C100.378 112.127 99.5549 111.865 99.106 111.155L91.5909 99.2721C91.1684 98.6032 91.2356 97.7804 91.7438 97.4072Z" fill="#418DF9"/>
</svg>